{
    "asset" : {
        "generator" : "Khronos glTF Blender I/O v1.7.33",
        "version" : "2.0"
    },
    "scene" : 0,
    "scenes" : [
        {
            "name" : "Scene",
            "nodes" : [
                0
            ]
        }
    ],
    "nodes" : [
        {
            "mesh" : 0,
            "name" : "casa1",
            "rotation" : [
                -0.7071068286895752,
                0,
                0,
                0.7071068286895752
            ],
            "scale" : [
                0.010686884634196758,
                0.010686884634196758,
                0.010686884634196758
            ],
            "translation" : [
                -9.30626392364502,
                0,
                0
            ]
        }
    ],
    "materials" : [
        {
            "name" : "lambert2",
            "pbrMetallicRoughness" : {
                "metallicFactor" : 0,
                "roughnessFactor" : 0.18400000035762787
            }
        }
    ],
    "meshes" : [
        {
            "name" : "casa1",
            "primitives" : [
                {
                    "attributes" : {
                        "POSITION" : 0,
                        "NORMAL" : 1,
                        "TEXCOORD_0" : 2,
                        "TEXCOORD_1" : 3,
                        "COLOR_0" : 4
                    },
                    "indices" : 5,
                    "material" : 0
                }
            ]
        }
    ],
    "accessors" : [
        {
            "bufferView" : 0,
            "componentType" : 5126,
            "count" : 62265,
            "max" : [
                2421.8623046875,
                2346.781494140625,
                844.9999389648438
            ],
            "min" : [
                -448.77447509765625,
                -927.509033203125,
                -130
            ],
            "type" : "VEC3"
        },
        {
            "bufferView" : 1,
            "componentType" : 5126,
            "count" : 62265,
            "type" : "VEC3"
        },
        {
            "bufferView" : 2,
            "componentType" : 5126,
            "count" : 62265,
            "type" : "VEC2"
        },
        {
            "bufferView" : 3,
            "componentType" : 5126,
            "count" : 62265,
            "type" : "VEC2"
        },
        {
            "bufferView" : 4,
            "componentType" : 5123,
            "count" : 62265,
            "normalized" : true,
            "type" : "VEC4"
        },
        {
            "bufferView" : 5,
            "componentType" : 5123,
            "count" : 62265,
            "type" : "SCALAR"
        }
    ],
    "bufferViews" : [
        {
            "buffer" : 0,
            "byteLength" : 747180,
            "byteOffset" : 0
        },
        {
            "buffer" : 0,
            "byteLength" : 747180,
            "byteOffset" : 747180
        },
        {
            "buffer" : 0,
            "byteLength" : 498120,
            "byteOffset" : 1494360
        },
        {
            "buffer" : 0,
            "byteLength" : 498120,
            "byteOffset" : 1992480
        },
        {
            "buffer" : 0,
            "byteLength" : 498120,
            "byteOffset" : 2490600
        },
        {
            "buffer" : 0,
            "byteLength" : 124530,
            "byteOffset" : 2988720
        }
    ],
    "buffers" : [
        {
            "byteLength" : 3113252,
            "uri" : "data:application/octet-stream;base64,"
        }
    ]
}
